<?xml version="1.0" standalone="no"?>
<!DOCTYPE svg PUBLIC "-//W3C//DTD SVG 20010904//EN"
 "http://www.w3.org/TR/2001/REC-SVG-20010904/DTD/svg10.dtd">
<svg version="1.0" xmlns="http://www.w3.org/2000/svg"
 width="2048.000000pt" height="2048.000000pt" viewBox="0 0 2048.000000 2048.000000"
 preserveAspectRatio="xMidYMid meet">
<metadata>
Created by potrace 1.11, written by Peter Selinger 2001-2013
</metadata>
<g transform="translate(0.000000,2048.000000) scale(0.100000,-0.100000)"
fill="#000000" stroke="none">
<path d="M10147 20474 c-1 -1 -96 -4 -212 -8 -206 -6 -310 -11 -450 -21 -163
-12 -440 -40 -585 -60 -19 -3 -53 -7 -75 -10 -22 -2 -58 -7 -80 -11 -22 -3
-53 -8 -70 -10 -16 -2 -41 -6 -55 -9 -14 -3 -41 -7 -60 -10 -153 -24 -381 -68
-660 -130 -8 -2 -51 -12 -95 -24 -44 -11 -91 -22 -105 -25 -41 -8 -317 -85
-440 -123 -862 -265 -1618 -605 -2370 -1066 -92 -57 -334 -214 -480 -314 -27
-18 -346 -250 -370 -270 -461 -361 -682 -556 -1029 -904 -206 -205 -278 -281
-396 -414 -44 -49 -82 -92 -86 -95 -18 -17 -236 -278 -309 -370 -28 -36 -57
-73 -65 -82 -14 -17 -183 -243 -255 -343 -87 -118 -160 -226 -160 -235 0 -6
-4 -10 -10 -10 -5 0 -10 -6 -10 -14 0 -8 -3 -16 -7 -18 -11 -5 -53 -66 -53
-77 0 -5 -4 -11 -8 -13 -10 -3 -229 -358 -287 -463 -22 -38 -43 -71 -47 -73
-4 -2 -8 -7 -8 -11 0 -4 -32 -65 -70 -136 -81 -148 -236 -455 -299 -595 -55
-120 -140 -312 -146 -330 -1 -3 -6 -16 -12 -30 -54 -128 -165 -416 -215 -560
-30 -89 -117 -354 -124 -380 -2 -8 -13 -46 -25 -85 -31 -103 -119 -426 -124
-457 -3 -14 -12 -53 -20 -85 -8 -32 -16 -67 -18 -78 -2 -11 -7 -31 -10 -45
-17 -70 -46 -210 -52 -245 -3 -22 -7 -47 -10 -55 -2 -8 -7 -28 -9 -45 -3 -16
-8 -41 -10 -55 -3 -14 -8 -41 -10 -60 -3 -19 -10 -62 -16 -95 -13 -70 -38
-240 -46 -305 -3 -25 -7 -56 -9 -70 -2 -14 -7 -50 -10 -80 -3 -30 -8 -66 -10
-80 -2 -14 -6 -54 -10 -90 -3 -36 -8 -81 -10 -100 -8 -65 -17 -202 -32 -455
-15 -246 -7 -1124 11 -1220 2 -11 7 -71 11 -134 4 -63 8 -121 10 -130 1 -9 6
-52 10 -95 4 -43 8 -86 10 -95 2 -9 6 -46 9 -82 4 -36 9 -79 11 -95 12 -73 15
-92 20 -139 3 -27 8 -59 10 -71 3 -12 9 -52 15 -90 5 -38 12 -82 15 -99 11
-66 37 -203 46 -250 6 -27 13 -61 15 -75 21 -107 70 -322 105 -455 22 -88 42
-167 44 -175 65 -275 274 -886 430 -1255 114 -271 167 -385 305 -660 221 -437
388 -722 666 -1133 184 -272 530 -728 665 -877 15 -16 60 -68 100 -115 205
-237 561 -603 778 -800 51 -47 103 -94 115 -105 17 -17 160 -140 276 -239 130
-111 404 -323 626 -483 103 -75 441 -303 449 -303 2 0 52 -31 112 -69 148 -94
332 -199 573 -329 163 -88 456 -230 621 -302 41 -18 92 -40 114 -50 22 -10 81
-35 130 -55 50 -20 104 -42 120 -50 113 -51 580 -214 830 -290 50 -14 111 -33
136 -41 25 -8 54 -16 65 -19 10 -2 46 -11 79 -20 33 -9 67 -18 75 -20 8 -2 69
-17 135 -34 217 -54 368 -88 580 -127 22 -4 47 -9 55 -10 18 -4 37 -8 225 -38
176 -28 200 -31 365 -51 196 -24 201 -24 270 -30 36 -3 83 -8 105 -10 163 -16
337 -20 890 -20 542 0 761 5 875 19 14 2 61 7 106 10 44 4 92 8 105 11 13 2
55 6 92 10 37 3 76 8 85 10 9 1 44 6 77 9 33 4 71 9 85 11 14 2 45 6 70 10 25
3 56 8 70 10 14 3 39 7 55 9 96 15 226 38 265 46 25 5 59 12 75 15 42 6 114
21 225 45 52 12 106 24 120 26 165 33 652 169 925 259 689 228 1411 559 2008
921 54 32 117 70 140 83 144 83 545 359 792 545 120 90 376 295 406 325 9 9
36 32 60 51 47 38 109 92 234 205 530 481 1010 1016 1439 1605 106 145 353
515 431 645 64 105 205 347 205 349 0 2 27 51 60 110 120 216 302 591 412 851
32 77 63 149 68 160 44 97 165 427 240 652 73 219 198 656 225 783 2 8 19 85
38 170 34 151 81 379 92 450 3 19 10 58 15 85 5 28 12 70 15 95 3 25 8 52 10
60 2 8 6 38 10 65 3 28 10 77 15 110 5 33 12 87 15 120 4 33 8 71 10 85 2 14
7 52 10 85 3 33 8 74 10 90 2 17 7 68 10 115 4 47 9 105 11 130 27 314 26
1403 -1 1572 -2 13 -6 61 -10 108 -3 47 -8 99 -10 115 -2 17 -6 59 -9 95 -9
91 -15 140 -32 260 -8 58 -17 123 -20 145 -3 22 -14 94 -25 160 -12 66 -22
129 -24 140 -2 18 -31 171 -41 220 -3 11 -7 36 -10 55 -3 19 -8 38 -10 41 -2
3 -6 21 -9 40 -40 229 -211 847 -320 1154 -19 55 -37 107 -39 115 -18 66 -170
449 -264 665 -71 163 -214 468 -232 495 -5 8 -16 29 -24 46 -61 135 -301 556
-479 838 -45 72 -211 322 -216 326 -4 3 -23 30 -44 60 -20 30 -45 66 -54 80
-24 34 -284 380 -305 405 -9 11 -53 65 -99 120 -92 112 -153 185 -187 224 -13
14 -47 53 -75 85 -153 176 -494 527 -678 697 -89 82 -207 189 -244 220 -22 19
-58 50 -80 71 -49 44 -323 269 -423 346 -156 120 -418 308 -582 417 -153 101
-380 245 -387 245 -3 0 -17 8 -31 19 -34 23 -64 41 -292 168 -351 196 -827
421 -1190 562 -74 29 -144 57 -155 61 -146 59 -502 177 -755 250 -149 43 -541
144 -595 153 -16 3 -73 15 -125 26 -97 22 -103 23 -200 41 -30 6 -66 12 -80
15 -20 4 -104 18 -230 40 -14 2 -45 7 -70 10 -25 3 -52 7 -60 9 -8 3 -40 7
-71 11 -31 3 -65 7 -75 9 -11 2 -46 7 -79 10 -56 6 -109 12 -180 21 -16 2 -61
6 -100 10 -38 3 -88 8 -110 10 -47 5 -177 14 -290 20 -145 9 -683 23 -688 19z"/>
</g>
</svg>
